# xmcd
#
# Track frame offsets:
#	150
#	25634
#	57444
#	95752
#	149652
#	192139
#	202972
#
# Disc length: 3062 seconds
#
# Revision: 1
# Processed by: cddbd v1.5.2PL0 Copyright (c) Steve Scherf et al.
# Submitted via: audiograbber 1.83.01
#
DISCID=610bf407
DTITLE=Grateful Dead - 78-07-05A Omaha Civic Auditorium, Omaha NB
DYEAR=1900
DGENRE=
TTITLE0=Deal
TTITLE1=Samson and Delilah
TTITLE2=Ship Of Fools
TTITLE3=Estimated Prophet
TTITLE4=Eyes Of The World
TTITLE5=Drums and Bass Jam
TTITLE6=Drums
EXTD=
EXTT0=
EXTT1=
EXTT2=
EXTT3=
EXTT4=
EXTT5=
EXTT6=
PLAYORDER=
